<svg xmlns="http://www.w3.org/2000/svg" width="50" height="14" viewBox="0 0 50 14"><path fill="none" stroke="#4898E5" stroke-miterlimit="10" d="M12.5 7.1c-.1 3-2.5 5.4-5.5 5.4-3.1 0-5.5-2.4-5.5-5.5S3.9 1.5 7 1.5c1.6 0 3.1.7 4.1 1.8"/><path fill="none" stroke="#777" stroke-miterlimit="10" d="M29.5 7.1c-.1 3-2.5 5.4-5.5 5.4-3.1 0-5.5-2.4-5.5-5.5s2.4-5.5 5.5-5.5c1.6 0 3.1.7 4.1 1.8"/><g fill="#777"><path d="M44 3.2l.5-.9c-.9-.5-1.9-.8-3-.8v1c.9 0 1.7.2 2.5.7zM47.3 5.9c-.3-1-.8-1.9-1.5-2.6l-.1-.1-.7.8c.6.6 1.1 1.4 1.3 2.2l1-.3zM37.1 5l-.9-.5c-.5.9-.8 1.9-.8 3h1c.1-.9.3-1.7.7-2.5zM35.7 9.1c.3 1 .8 1.9 1.5 2.6l.8-.7c-.6-.6-1.1-1.4-1.3-2.2l-1 .3zM42.8 12.3l.3 1c1-.3 1.9-.8 2.7-1.5L45 11c-.6.6-1.3 1.1-2.2 1.3zM46.5 7.5c0 .9-.2 1.7-.7 2.5l.9.5c.5-.9.8-1.9.8-3h-1zM39 11.8l-.5.9c.9.5 1.9.8 3 .8v-1c-.9 0-1.7-.2-2.5-.7zM39.9 1.7c-1 .3-1.9.8-2.7 1.6l.8.7c.6-.6 1.4-1.1 2.2-1.3l-.3-1z"/></g></svg>