<svg id="Layer_1" xmlns="http://www.w3.org/2000/svg" width="400" height="977" viewBox="0 0 400 977"><style>.st0{fill:none;stroke:#000;stroke-miterlimit:10}.st1{opacity:.5;fill:#fff;enable-background:new}.st2{fill:none;stroke:#848484;stroke-width:2;stroke-miterlimit:10}.st3{fill:#585858}.st4{fill:#dedede}.st5,.st6,.st7,.st8{fill:none;stroke:#000;stroke-width:.858;stroke-miterlimit:10}.st6,.st7,.st8{stroke-width:2}.st7,.st8{stroke-width:1.5}.st8{fill:#fff}.st9{fill:#e87522}.st10{fill:#eac060}.st11{fill:#65b0be}.st12{fill:#d0d38c}.st13{fill:none;stroke:#2c97df;stroke-miterlimit:10}.st14{fill:#f26e6d}.st15{fill:#66be91}.st16{fill:none;stroke:#2c97df;stroke-width:2;stroke-miterlimit:10}.st17{fill:#2c97df}.st18{fill:none;stroke:#2c97df;stroke-width:1.5}.st18,.st19,.st20{stroke-miterlimit:10}.st19{stroke-width:1.5;fill:#fff;stroke:#2c97df}.st20{fill:#f26e6d;stroke:#f26e6d}.st21{fill:#fa5990}.st22{fill:#62b0f3}.st23{fill:none;stroke:#fa5990;stroke-width:1.5;stroke-miterlimit:10}.st24{fill:#f27474}.st25{fill:#ffc45f}.st26,.st27,.st28{fill:none;stroke-miterlimit:10}.st26{stroke-linecap:round;stroke:#000;stroke-width:1.5}.st27,.st28{stroke:#f27474;stroke-width:2}.st28{stroke:#555;stroke-width:1.5;stroke-linecap:round}.st29{fill:#555}.st30,.st31{fill:none;stroke:#000;stroke-width:.9799;stroke-miterlimit:10}.st31{stroke-width:.9888}.st32{fill:#53b971}.st33{fill:#4d9ace}.st34{fill:#55607f}.st35,.st36{fill:none;stroke:#fa5990;stroke-miterlimit:10}.st36{stroke:#55607f}.st37{fill:#e8e8e8}.st38{fill:none;stroke-miterlimit:10}.st38,.st39,.st40{stroke:#a3a3a3}.st39{fill:none;stroke-miterlimit:10;stroke-width:2}.st40{opacity:.8;stroke-width:1.5;stroke-linecap:round;enable-background:new}.st40,.st41,.st42{fill:none;stroke-miterlimit:10}.st41{opacity:.8;stroke-linecap:round;enable-background:new;stroke:#a3a3a3;stroke-width:2}.st42{stroke:#000;stroke-width:1.0127}.st43{fill:#fff}.st44{fill:#a6a6a6}.st45{fill:#ececec}.st46{fill:#e0e0e0}.st47{fill:none;stroke:#a6a6a6;stroke-width:.5;stroke-miterlimit:10}.st48{fill:#f4f4f4}.st49{fill:#64bce0}.st50{fill:#d3f5ff}.st51{fill:#b6efff}.st52{fill:none;stroke:#64bce0;stroke-width:.5;stroke-miterlimit:10}.st53{fill:#e5f9ff}.st54{fill:none;stroke:#000;stroke-miterlimit:10}.st54,.st55{stroke-width:.8}.st55,.st56{fill:none;stroke:#fff;stroke-miterlimit:10}.st57{stroke-width:.8}.st57,.st58{fill:none;stroke:#47a2f6;stroke-miterlimit:10}.st59{fill:#47a2f6}.st60,.st61{fill:none;stroke:#212121;stroke-miterlimit:10}.st61{stroke:#000;stroke-width:.5;stroke-linecap:round}</style><circle class="st0" cx="136.5" cy="100.5" r="9"/><path class="st0" d="M132 100.5h9M136.5 96v9"/><path class="st1" d="M6 91h53v55H3V94c0-1.7 1.3-3 3-3z"/><path class="st2" d="M36 151H11c-1.7 0-3-1.3-3-3V99c0-1.7 1.3-3 3-3h50c1.7 0 3 1.3 3 3v40"/><path class="st3" d="M42.2 125l1.6 4.2 1.1-.5-1.6-4.2-1.1.5zm9.6 8.6l4.6-1.3-.2-1.2-4.6 1.3.2 1.2zm-15.3 3.7l.2 1.2 4.6-1.3-.2-1.2-4.6 1.3zm4.6-5.8l-3.9-1.9-.4 1.1 3.9 1.9.4-1.1zm10.6-5.1l-.9-.7-2.7 4 .9.7 2.7-4zm10.1 21.8l-16-14.9c-.1-.1-.3-.2-.5-.1s-.3.3-.3.4v21.7c0 .2.1.4.3.4.2.1.4 0 .5-.1l4.7-5 3.5 7.2c.1.2.3.3.4.3h.2l3.5-1.5.3-.3v-.4l-3.5-6.9h6.7c.2 0 .4-.1.4-.3s0-.4-.2-.5z"/><path class="st4" d="M117 89.5v70s-.7-32.1-33-36c0 0 30.9-2 33-34z"/><path d="M6 9h4v20H6zM12 18h4v11h-4zM24 21h4v8h-4zM18 13h4v16h-4z"/><path class="st5" d="M50.5 16.6l3.7-5.2 5.6 5.4 3.6-5.3"/><path d="M73 17l-3.5 4-3.5-4zM66 15l3.5-4 3.5 4z"/><path class="st6" d="M49 22h7M49 25h25M49 28h25"/><circle cx="54.5" cy="11.5" r="1.5"/><circle cx="59.5" cy="16.5" r="1.5"/><circle cx="63.5" cy="11.5" r="1.5"/><circle cx="50.5" cy="16.5" r="1.5"/><path class="st7" d="M98 23l7-9 8 9.2 7.5-10.5"/><circle class="st8" cx="98" cy="23" r="2.5"/><circle class="st8" cx="105" cy="14" r="2.5"/><circle class="st8" cx="120" cy="14" r="2.5"/><circle class="st8" cx="113" cy="23" r="2.5"/><path d="M147.8 29.1l.3-1c-3.4 0-6.9-.2-7.7-.5.2-2.1 3.3-5.4 7.1-5.4.9 0 1.7.2 2.5.5l.3-1c-.2-.1-.4-.1-.6-.2.3-.2.6-.4.8-.6l1.5-4.5c-.5-2-2.3-3.5-4.4-3.5-2.5 0-4.6 2.1-4.6 4.6 0 1.7 1 3.2 2.4 4-3.4 1-6 4.1-6 6.3 0 .6.7.9 2.8 1.2 1.4.1 3.3.2 5.3.2.1-.1.2-.1.3-.1zM144 17.5c0-2 1.6-3.6 3.6-3.6s3.6 1.6 3.6 3.6-1.6 3.6-3.6 3.6-3.6-1.6-3.6-3.6zM158.1 21.6c1.8-.6 3.1-2.2 3.1-4.2 0-2.4-2-4.4-4.4-4.4-.2 0-.4 0-.6.1l-2.5 7.5c.5.4 1 .8 1.6 1-.8.1-1.5.4-2.2.7l-2.1 6.4c4.6.5 14 .2 14-.7 0-2.2-3-5.6-6.9-6.4z"/><path class="st7" d="M154.8 9.4l-7.7 23.1"/><path d="M210.3 8h-21.7c-.4 0-.6.4-.4.7l2.9 6.3h16.7l2.9-6.3c.2-.3 0-.7-.4-.7zM200 32l3.2-7h-7.4l3.2 7c.2.3.8.3 1 0zM192.1 17h-.1l2.8 6h9.4l2.8-6h-.1z"/><path class="st9" d="M6 52h4v20H6z"/><path class="st10" d="M12 61h4v11h-4z"/><path class="st11" d="M24 64h4v8h-4z"/><path class="st12" d="M18 56h4v16h-4z"/><path class="st13" d="M50.5 59.6l3.7-5.2 5.6 5.4 3.6-5.3"/><path class="st14" d="M73 60l-3.5 4-3.5-4z"/><path class="st15" d="M66 58l3.5-4 3.5 4z"/><path class="st16" d="M49 65h7M49 68h25M49 71h25"/><circle class="st17" cx="54.5" cy="54.5" r="1.5"/><circle class="st17" cx="59.5" cy="59.5" r="1.5"/><circle class="st17" cx="63.5" cy="54.5" r="1.5"/><circle class="st17" cx="50.5" cy="59.5" r="1.5"/><path class="st18" d="M98 66l7-9 8 9.2 7.5-10.5"/><circle class="st19" cx="98" cy="66" r="2.5"/><circle class="st19" cx="105" cy="57" r="2.5"/><circle class="st19" cx="120" cy="57" r="2.5"/><circle class="st20" cx="113" cy="66" r="2.5"/><path class="st21" d="M147.8 72.1l.3-1c-3.4 0-6.9-.2-7.7-.5.2-2.1 3.3-5.4 7.1-5.4.9 0 1.7.2 2.5.5l.3-1c-.2-.1-.4-.1-.6-.2.3-.2.6-.4.8-.6l1.5-4.5c-.5-2-2.3-3.5-4.4-3.5-2.5 0-4.6 2.1-4.6 4.6 0 1.7 1 3.2 2.4 4-3.4 1-6 4.1-6 6.3 0 .6.7.9 2.8 1.2 1.4.1 3.3.2 5.3.2.1-.1.2-.1.3-.1zM144 60.5c0-2 1.6-3.6 3.6-3.6s3.6 1.6 3.6 3.6-1.6 3.6-3.6 3.6-3.6-1.6-3.6-3.6z"/><path class="st22" d="M158.1 64.6c1.8-.6 3.1-2.2 3.1-4.2 0-2.4-2-4.4-4.4-4.4-.2 0-.4 0-.6.1l-2.5 7.5c.5.4 1 .8 1.6 1-.8.1-1.5.4-2.2.7l-2.1 6.4c4.6.5 14 .2 14-.7 0-2.2-3-5.6-6.9-6.4z"/><path class="st23" d="M154.8 52.4l-7.7 23.1"/><path class="st24" d="M210.3 51h-21.7c-.4 0-.6.4-.4.7l2.9 6.3h16.7l2.9-6.3c.2-.3 0-.7-.4-.7z"/><path class="st15" d="M200 75l3.2-7h-7.4l3.2 7c.2.3.8.3 1 0z"/><path class="st25" d="M192.1 60h-.1l2.8 6h9.4l2.8-6h-.1z"/><path class="st6" d="M245.8 16c-1.1-1.5-2.7-2.6-4.5-3.3-5.4-2-11.5.7-13.6 6.2-2.1 5.4.6 11.5 6 13.5s11.5-.7 13.6-6.2c.7-1.9.9-3.9.5-5.8"/><path class="st6" d="M241.2 18.4c-.4-.4-.9-.7-1.4-.9-2.8-1.3-6-.1-7.3 2.7s0 6 2.7 7.3c2.8 1.3 6 .1 7.3-2.7.2-.5.4-1 .5-1.5"/><path class="st26" d="M238.6 22.8l10.3-5.7"/><path d="M249.1 14.2l3.3-1.8.3 2.8 2.2 1.7-3.4 1.8-3.5-1z"/><path class="st27" d="M245.8 57c-1.1-1.5-2.7-2.6-4.5-3.3-5.4-2-11.5.7-13.6 6.2-2.1 5.4.6 11.5 6 13.5s11.5-.7 13.6-6.2c.7-1.9.9-3.9.5-5.8"/><path class="st27" d="M241.2 59.4c-.4-.4-.9-.7-1.4-.9-2.8-1.3-6-.1-7.3 2.7s0 6 2.7 7.3c2.8 1.3 6 .1 7.3-2.7.2-.5.4-1 .5-1.5"/><path class="st28" d="M238.6 63.8l10.3-5.7"/><path class="st29" d="M249.1 55.2l3.3-1.8.3 2.8 2.2 1.7-3.4 1.8-3.5-1z"/><path class="st0" d="M184.5 122v1.5h-23v-29h2.5"/><path class="st0" d="M186.5 121.5h-23v-30h17.1l5.9 5.8z"/><path class="st0" d="M186 97.5h-5.5V92"/><path d="M177 99l-5.5 5-5.5-5zM169 91h5v8h-5zM167 107v11h16v-11h-16zm5 10h-4v-2h4v2zm0-3h-4v-2h4v2zm0-3h-4v-2h4v2zm5 6h-4v-2h4v2zm0-3h-4v-2h4v2zm0-3h-4v-2h4v2zm5 6h-4v-2h4v2zm0-3h-4v-2h4v2zm0-3h-4v-2h4v2z"/><path class="st0" d="M208.1 117.5h-4.3c-.2 0-.4-.2-.4-.3V91.8c0-.2.2-.3.4-.3h4.3c.2 0 .4.2.4.3v25.3c0 .2-.2.4-.4.4zM210.5 116v-15.2c0-.2.2-.3.4-.3h4.3c.2 0 .4.2.4.3v8.2M229.1 117.5h-4.3c-.2 0-.4-.2-.4-.3v-12.3c0-.2.2-.3.4-.3h4.3c.2 0 .4.2.4.3v12.3c0 .1-.2.3-.4.3zM217.5 109V95.8c0-.2.2-.3.4-.3h4.3c.2 0 .4.2.4.3V113"/><path d="M211.8 119h3.2s-2.1 6.6-2.4 7.7c.6-.8 7.7-11.7 7.7-11.7h-2.6l2.1-4h-4l-4 8z"/><path class="st30" d="M137 123.5h9.5v12h-16V130"/><path class="st31" d="M135.5 126v10M146 127.5h-12"/><path d="M135.8 121.5L133 119v2h-1.5c-1.9 0-3.5 1.6-3.5 3.5v1.5h-2l2.6 2.8 2.4-2.8h-2v-1.5c0-1.4 1.1-2.5 2.5-2.5h1.5v2l2.8-2.5z"/><path class="st15" d="M109 184h7c-.3-3.7-3.2-6.7-7-7v7z"/><path class="st25" d="M114 189.6c1.1-1.2 1.8-2.8 2-4.6h-6.5l4.5 4.6z"/><path class="st24" d="M108 185v-8c-4 .3-7.1 3.7-7 7.7s3.6 7.3 7.6 7.2c1.8 0 3.4-.7 4.7-1.7L108 185z"/><path class="st32" d="M142.5 185c0 .9-.3 1.8-.8 2.5l2.6 2.6c1.1-1.4 1.8-3.1 1.8-5s-.7-3.7-1.8-5l-2.6 2.6c.5.6.8 1.4.8 2.3z"/><path class="st33" d="M140.5 188.7c-.7.5-1.6.8-2.5.8-2.2 0-4-1.5-4.4-3.6H130c.4 4 3.8 7.2 8 7.2 1.9 0 3.7-.7 5.1-1.8l-2.6-2.6z"/><path class="st34" d="M133.7 184.2c.4-2 2.2-3.6 4.4-3.6.9 0 1.8.3 2.5.8l2.6-2.6c-1.4-1.1-3.1-1.8-5.1-1.8-4.2 0-7.6 3.1-8 7.2h3.6z"/><path class="st35" d="M162.5 188.5l2.7-3 4.4 3.3 7-7.4"/><path class="st13" d="M160.5 177v16.5H178"/><path class="st36" d="M192.5 178.5h18v13h-18zM198.5 178v14M210 182.5h-18"/><path class="st35" d="M162.5 183.5l2.6-2.1 10 8.1 2.9-4.6"/><path class="st25" d="M227 188l3.6-5 4.4 3.3 7-6.4v11h-15V188z"/><path class="st13" d="M225.5 176v16.5H243"/><path class="st24" d="M41 178h3v14h-3zM45 184h3v8h-3zM49 182h3v10h-3zM53 187h3v5h-3z"/><path class="st15" d="M71 178h14v3H71zM71 182h8v3h-8zM71 186h10v3H71zM71 190h5v3h-5z"/><path class="st22" d="M16 191.2v-7.5l-4-5.7h12.5l-4.5 5.8v4.8l-4 2.6z"/><path class="st30" d="M132.5 155v-4M132.5 162v-4M135 153l-2.5-2.6-2.5 2.6M130 160.1l2.5 2.5 2.5-2.5M138 150.5h9M138 153.5h9M138 156.5h9M138 159.5h9M138 162.5h9"/><path class="st37" d="M63.3 253.1c-.4.4-.5.9-.4 1.4l3.1 16.7c.2.8-.7 1.5-1.5 1.1l-15.8-7.7c-.2-.1-.4-.2-.7-.2s-.5.1-.7.2l-15.8 7.7c-.8.4-1.6-.3-1.5-1.1l3.1-16.6c.1-.5-.1-1-.4-1.4l-12.8-13c-.6-.6-.2-1.7.6-1.8l17.5-1.7c.5-.1 1-.4 1.2-.9L47 219c.4-.8 1.5-.8 1.9 0l7.8 16.8c.2.5.7.8 1.2.9l17.5 1.7c.9.1 1.3 1.1.6 1.8l-12.7 12.9z"/><path class="st38" d="M84.6 226.1s-.1.1 0 .1l.3 1.8c0 .1-.1.2-.2.1l-1.7-.8h-.1-.1l-1.7.8c-.1 0-.2 0-.2-.1l.3-1.8v-.1l-1.4-1.4c-.1-.1 0-.2.1-.2l1.9-.2c.1 0 .1 0 .1-.1l.8-1.8c0-.1.2-.1.2 0l.8 1.8c0 .1.1.1.1.1l1.9.2c.1 0 .1.1.1.2l-1.2 1.4zM30.5 219.5c-.1.1-.1.1-.1.2l.4 2.4c0 .1-.1.2-.2.2l-2.3-1.1h-.2l-2.3 1.1c-.1.1-.2 0-.2-.2l.4-2.4c0-.1 0-.1-.1-.2l-1.9-1.9c-.1-.1 0-.2.1-.3l2.5-.2c.1 0 .1-.1.2-.1l1.1-2.4c.1-.1.2-.1.3 0l1.1 2.4c0 .1.1.1.2.1l2.5.2c.1 0 .2.2.1.3l-1.6 1.9zM9.5 246.4s-.1.1 0 .2l.3 1.9c0 .1-.1.2-.2.1l-1.8-.9h-.2l-1.6.9c-.1 0-.2 0-.2-.1l.3-1.9v-.2L4.7 245c-.1-.1 0-.2.1-.2l2-.2c.1 0 .1 0 .1-.1l.9-1.9c0-.1.2-.1.2 0l.9 1.9c0 .1.1.1.1.1l2 .2c.1 0 .1.1.1.2l-1.6 1.4z"/><path class="st39" d="M69.3 255.1c-.4.4-.5.9-.4 1.4l3.1 16.7c.2.8-.7 1.5-1.5 1.1l-15.8-7.7c-.2-.1-.4-.2-.7-.2s-.5.1-.7.2l-15.8 7.7c-.8.4-1.6-.3-1.5-1.1l3.1-16.6c.1-.5-.1-1-.4-1.4l-12.8-13c-.6-.6-.2-1.7.6-1.8l17.5-1.7c.5-.1 1-.4 1.2-.9L53 221c.4-.8 1.5-.8 1.9 0l7.8 16.8c.2.5.7.8 1.2.9l17.5 1.7c.9.1 1.3 1.1.6 1.8l-12.7 12.9z"/><path class="st40" d="M17 259v8M21 263h-8"/><path class="st41" d="M92 254v10M97 259H87"/><path class="st0" d="M163 142.5h6M165.7 145.7l-3.2-3.2 3.2-3.2M169 136.5h3.5v12H169M171.5 137v11"/><path class="st42" d="M112.5 215.5h26v21h-26zM112.5 207.5h35v8h-35z"/><path d="M140.4 210h4.3l-2.2 2.6zM116 212h16v1h-16zM116 220h18v1h-18zM116 227h18v1h-18zM116 234h18v1h-18zM113 222h25v1h-25zM113 229h25v1h-25z"/><path class="st0" d="M189.5 236v1.5h-22v-26h2.5"/><path class="st0" d="M170.5 223v-15.5h16.1l5.9 5.8v21.2h-22V231"/><path class="st0" d="M192 213.5h-5.5V208"/><path d="M173 223l4 4-4 4zM168 225h5v4h-5z"/><path class="st0" d="M173 214.5h10M173 217.5h17M173 220.5h17M177 223.5h13M179 226.5h11M178 229.5h12"/><path d="M170.5 158.5L166 163v7h9v-7l-4.5-4.5z"/><path class="st13" d="M187.5 136.5h20v12h-20zM192.5 136v13M197.5 136v13M202.5 136v13M207 139.5h-19M207 142.5h-19M207 145.5h-19"/><path class="st17" d="M203 137h4v2h-4zM203 146h4v2h-4zM188 143h4v2h-4zM193 143h4v2h-4zM193 140h4v2h-4z"/><path class="st43" d="M6 293.4h6.4v31.8H6zM15.5 307.7h6.4v17.5h-6.4zM34.6 312.5H41v12.7h-6.4zM25.1 299.8h6.4v25.5h-6.4zM75.7 306.9l-9-8.6-5.4 7.6-1.1-.8 6.4-8.9 8.9 8.6 5.2-7.8 1.2.8zM96.6 306.1l-5.6 6.4-5.6-6.4zM85.4 303l5.6-6.4 5.6 6.4zM58.4 312.5h11.1v3.2H58.4zM58.4 317.3h39.8v3.2H58.4z"/><circle class="st43" cx="67.1" cy="297.4" r="2.4"/><circle class="st43" cx="75.1" cy="305.3" r="2.4"/><circle class="st43" cx="81.5" cy="297.4" r="2.4"/><circle class="st43" cx="60.8" cy="305.3" r="2.4"/><path class="st43" d="M143.4 317.9l-12.8-14.7-10.2 13.2-1.9-1.4 12-15.5 12.7 14.6 11-15.5 2 1.4z"/><circle class="st43" cx="119.4" cy="315.7" r="4"/><path class="st43" d="M119.4 320.9c-2.9 0-5.2-2.3-5.2-5.2 0-2.9 2.3-5.2 5.2-5.2s5.2 2.3 5.2 5.2-2.3 5.2-5.2 5.2zm0-8c-1.5 0-2.8 1.3-2.8 2.8s1.3 2.8 2.8 2.8 2.8-1.3 2.8-2.8c0-1.5-1.3-2.8-2.8-2.8z"/><circle class="st43" cx="130.5" cy="301.4" r="4"/><path class="st43" d="M130.5 306.5c-2.9 0-5.2-2.3-5.2-5.2 0-2.9 2.3-5.2 5.2-5.2s5.2 2.3 5.2 5.2c0 2.8-2.3 5.2-5.2 5.2.1 0 0 0 0 0zm0-7.9c-1.5 0-2.8 1.3-2.8 2.8s1.3 2.8 2.8 2.8 2.8-1.3 2.8-2.8c0-1.5-1.2-2.8-2.7-2.8h-.1z"/><circle class="st43" cx="154.4" cy="301.4" r="4"/><path class="st43" d="M154.4 306.5c-2.9 0-5.2-2.3-5.2-5.2 0-2.9 2.3-5.2 5.2-5.2s5.2 2.3 5.2 5.2c0 2.8-2.3 5.2-5.2 5.2.1 0 0 0 0 0zm0-7.9c-1.5 0-2.8 1.3-2.8 2.8s1.3 2.8 2.8 2.8 2.8-1.3 2.8-2.8c0-1.5-1.2-2.8-2.7-2.8h-.1z"/><circle class="st43" cx="143.3" cy="315.7" r="4"/><path class="st43" d="M143.3 320.9c-2.9 0-5.2-2.3-5.2-5.2 0-2.9 2.3-5.2 5.2-5.2s5.2 2.3 5.2 5.2-2.3 5.2-5.2 5.2zm0-8c-1.5 0-2.8 1.3-2.8 2.8s1.3 2.8 2.8 2.8 2.8-1.3 2.8-2.8c0-1.5-1.3-2.8-2.8-2.8zM183 323.4l.5-1.6c-5.4 0-11-.3-12.3-.8.3-3.3 5.3-8.6 11.3-8.6 1.4 0 2.7.3 4 .8l.5-1.6c-.3-.2-.7-.3-1-.3.5-.3.9-.6 1.3-1l2.4-7.2c-.9-3.9-4.8-6.3-8.7-5.5-3.3.8-5.7 3.7-5.6 7.2.1 2.7 1.5 5.1 3.8 6.4-5.4 1.6-9.5 6.5-9.5 10 0 1 1.1 1.4 4.5 1.9 2.2.2 5.3.3 8.4.3h.4zm-6.1-18.5c0-3.1 2.6-5.7 5.7-5.7s5.7 2.6 5.7 5.7-2.6 5.7-5.7 5.7c-3.1.1-5.6-2.4-5.7-5.4v-.3zM199.3 311.5c2.9-.9 4.9-3.6 4.9-6.7 0-3.8-3.2-7-7-7-.3 0-.7 0-1 .2l-4 11.9c.7.7 1.6 1.2 2.5 1.6-1.2.2-2.4.6-3.5 1.1l-3.3 10.2c7.3.8 22.3.3 22.3-1.1.1-3.6-4.6-9-10.9-10.2z"/><path transform="rotate(-71.549 188.253 310.53)" class="st43" d="M168.9 309.3h38.8v2.4h-38.8z"/><path class="st43" d="M254.2 289.8h-34.5c-.4 0-.7.2-.7.6 0 .2 0 .4.1.5l4.6 10h26.6l4.6-10c.2-.4 0-.9-.4-1-.1-.1-.2-.1-.3-.1zM237.8 328l5.1-11.1h-11.8l5.1 11.1c.3.4 1 .5 1.4.2l.2-.2zM225.2 304.1h-.1l4.4 9.6h15l4.4-9.6h-.1zM285.6 326.3c-2.1 0-4.3-.4-6.3-1.1-4.5-1.7-8.2-5.1-10.1-9.5-4.2-9.3 0-20.3 9.4-24.4 4.4-2 9.4-2.1 13.9-.5 3.1 1.1 5.9 3.2 7.9 5.8l-2.6 1.9c-1.7-2.1-3.9-3.8-6.5-4.7-7.9-2.9-16.6 1.1-19.6 9-1.5 3.7-1.4 7.9.3 11.6 1.6 3.6 4.6 6.4 8.3 7.8 7.9 2.9 16.6-1.1 19.6-8.9 1-2.6 1.3-5.5.7-8.3l3.1-.7c.7 3.4.4 6.9-.9 10.1-2.7 7.2-9.6 11.9-17.2 11.9z"/><path class="st43" d="M285.9 318.3c-1.5 0-3-.3-4.4-1-5.3-2.2-7.7-8.3-5.4-13.6 2.2-5.3 8.3-7.7 13.6-5.4.2.1.3.1.5.2 1 .4 1.9 1 2.7 1.8l-2.3 2.3c-.5-.5-1.1-.8-1.7-1.1-1.8-.8-3.8-1-5.6-.3-3.7 1.4-5.6 5.7-4.1 9.4.7 1.7 2 3.1 3.6 3.9a7 7 0 0 0 5.5.2c1.8-.7 3.2-2 4-3.8.3-.7.5-1.4.7-2l3.1.6c-.2.9-.5 1.8-.9 2.7-1.2 2.5-3.2 4.5-5.8 5.5-1.2.4-2.3.6-3.5.6z"/><path class="st43" d="M287.6 309.6c-.4 0-.8-.2-1-.6-.3-.6-.1-1.3.5-1.6l16.4-9.1c.6-.4 1.3-.2 1.6.4.4.6.2 1.3-.4 1.6-.1 0-.1.1-.2.1l-16.4 9.1c-.1 0-.3.1-.5.1z"/><path class="st43" d="M304.3 294.7l5.2-2.9.5 4.5 3.5 2.7-5.4 2.8-5.6-1.5zM297.5 77.3c.9.3 2.8.6 3.8.7 1.8.1 3.5-.1 5.6-1.8 3.7-3 5.3-11.3 14-10 6 .9 6.4 11.4 14 7.8 7.6-3.5 18.2 8.9 11.4 13.5S329.8 93.3 330 99c.2 5.8-20.2 4.5-22.7-4.1s-9-2.1-12.9-6.8c-3.7-4.5-1.9-12.5 3.1-10.8z"/><circle class="st44" cx="322.7" cy="81.3" r="5.8"/><path class="st44" d="M345.7 75.1h.9v4.4h-.9z"/><path class="st45" d="M347 77.1h.9v2.4h-.9zM349.6 77.7h.9v1.7h-.9z"/><path class="st46" d="M348.3 76h.9v3.5h-.9z"/><circle class="st44" cx="337.9" cy="85" r="4.9"/><path class="st46" d="M324 82.9l-2.4-2.8-1.9 2.5-.4-.3 2.3-2.9 2.4 2.7 2.1-2.9.4.3z"/><circle class="st46" cx="319.5" cy="82.4" r=".8"/><path class="st46" d="M319.5 83.4c-.5 0-1-.4-1-1 0-.5.4-1 1-1 .5 0 1 .4 1 1s-.4 1-1 1zm0-1.5c-.3 0-.5.2-.5.5s.2.5.5.5.5-.2.5-.5-.2-.5-.5-.5z"/><circle class="st46" cx="321.6" cy="79.7" r=".8"/><path class="st46" d="M321.6 80.7c-.5 0-1-.4-1-1s.4-1 1-1 1 .4 1 1-.4 1-1 1zm0-1.5c-.3 0-.5.2-.5.5s.2.5.5.5.5-.2.5-.5-.2-.5-.5-.5z"/><circle class="st46" cx="326.1" cy="79.7" r=".8"/><path class="st46" d="M326.1 80.7c-.5 0-1-.4-1-1s.4-1 1-1c.5 0 1 .4 1 1s-.4 1-1 1zm0-1.5c-.3 0-.5.2-.5.5s.2.5.5.5.5-.2.5-.5-.2-.5-.5-.5z"/><circle class="st46" cx="324" cy="82.4" r=".8"/><path class="st46" d="M324 83.3c-.5 0-.9-.4-.9-.9s.4-.9.9-.9.9.4.9.9-.4.9-.9.9zm0-1.5c-.3 0-.6.3-.6.6s.3.6.6.6.6-.3.6-.6-.2-.6-.6-.6zM337.1 86.6l.1-.2c-.8 0-1.7 0-1.9-.1 0-.5.8-1.3 1.8-1.3.2 0 .4 0 .6.1l.1-.2h-.1c.1 0 .1-.1.2-.1l.4-1.1c-.1-.5-.6-.9-1.1-.9-.6 0-1.1.5-1.1 1.1 0 .4.2.8.6 1-.8.2-1.5 1-1.5 1.6 0 .1.2.2.7.3.2-.2.7-.2 1.2-.2zm-.9-2.9c0-.5.4-.9.9-.9s.9.4.9.9-.4.9-.9.9-.9-.4-.9-.9zM339.7 84.7c.4-.1.8-.5.8-1 0-.6-.5-1.1-1.1-1.1h-.1l-.6 1.8c.1.1.2.2.4.2-.2 0-.4.1-.5.2l-.5 1.6c1.1.1 3.5 0 3.5-.2-.2-.4-1-1.3-1.9-1.5z"/><path transform="rotate(-71.555 337.904 84.96)" class="st46" d="M334.9 84.8h6v.4h-6z"/><path class="st46" d="M328.4 99.8c-.5 0-.9-.1-1.4-.2-1-.4-1.8-1.1-2.2-2.1-.4-1-.5-2.1-.1-3.1.8-2 3.1-3.1 5.1-2.3.7.3 1.3.7 1.7 1.3l-.6.4c-.3-.4-.8-.8-1.4-1-1.7-.6-3.6.2-4.2 1.9-.3.8-.3 1.7.1 2.5s1 1.4 1.8 1.7c1.7.6 3.6-.2 4.2-1.9.2-.6.3-1.2.2-1.8l.7-.1c.1.7.1 1.5-.2 2.2-.5 1.5-2.1 2.5-3.7 2.5z"/><path class="st45" d="M328.5 98.1c-.3 0-.6-.1-1-.2-1.1-.5-1.6-1.9-1.1-3 .3-.6.7-1 1.3-1.2.6-.2 1.2-.2 1.7.1.2.1.4.2.6.4l-.5.5c-.1-.1-.2-.2-.4-.2-.4-.2-.8-.2-1.2-.1-.4.1-.7.4-.9.8-.4.8 0 1.7.8 2.1.4.2.8.2 1.2.1.4-.1.7-.4.9-.8.1-.1.1-.3.1-.4l.7.1c0 .2-.1.4-.2.6-.4.7-1.2 1.2-2 1.2z"/><path class="st44" d="M328.8 96.2c-.1 0-.2 0-.2-.1-.1-.1 0-.3.1-.4l3.6-2c.1-.1.3 0 .4.1s0 .3-.1.4l-3.6 2h-.2z"/><path class="st44" d="M332.5 93l1.1-.6.1.9.8.6-1.2.6-1.2-.3zM309.4 74.5h-4.1c-.1 0-.1.1-.1.1l.6 1.2h3.2l.6-1.2c0-.1-.1-.1-.2-.1z"/><path class="st45" d="M307.5 79l.6-1.3h-1.4l.6 1.3c0 .1.1.1.2 0z"/><path class="st46" d="M306 76.2l.5 1.1h1.8l.5-1.1z"/><circle class="st47" cx="307.4" cy="76.3" r="4.8"/><circle class="st47" cx="348.3" cy="77.3" r="4.3"/><path class="st44" d="M318.1 88.8H317v-.7c0-2-1.6-3.6-3.6-3.6h-13.9l-4.6-4.6c-.6-.6-1.6-1.1-2.5-1.1h-11.7c-2 0-3.6 1.6-3.6 3.6v27c0 2 1.6 3.6 3.6 3.6h32c1.6 0 2.9-1 3.4-2.5l5.3-17.1c.7-2.3-.9-4.6-3.3-4.6zm-39.5-6.4c0-1.2.9-2.1 2.1-2.1h11.6c.6 0 1.1.2 1.5.6l4.8 4.8c.1.1.3.2.5.2h14.2c1.2 0 2.1.9 2.1 2.1v.7H287c-1.6 0-2.9 1-3.4 2.5l-5 16.3V82.4zM320.1 93l-5.3 17.1c-.3.9-1.1 1.5-2.1 1.5h-32c-.8 0-1.7-.8-1.4-1.8l5.6-18.1c.3-.9 1.1-1.5 2.1-1.5h31c1.6 0 2.5 1.5 2.1 2.8z"/><path class="st45" d="M320.2 93l-5.3 17.1c-.3.9-1.1 1.5-2.1 1.5h-32c-.8 0-1.7-.8-1.4-1.8l5.6-18.1c.3-.9 1.1-1.5 2.1-1.5h31c1.6 0 2.5 1.5 2.1 2.8z"/><path class="st48" d="M278.6 82.4c0-1.2.9-2.1 2.1-2.1h11.6c.6 0 1.1.2 1.5.6l4.8 4.8c.1.1.3.2.5.2h14.2c1.2 0 2.1.9 2.1 2.1v.7H287c-1.6 0-2.9 1-3.4 2.5l-5 16.3V82.4z"/><circle class="st44" cx="279.4" cy="80.3" r="8.8"/><path class="st48" d="M279.9 76.7v3.1h2.9c.2 0 .5.2.5.5 0 .2-.2.5-.5.5h-2.9v3.1c0 .2-.2.5-.5.5h-.1c-.2 0-.5-.2-.5-.5v-3.1H276c-.2 0-.5-.2-.5-.5 0-.2.2-.5.5-.5h2.9v-3.1c0-.2.2-.5.5-.5h.1c.2.1.4.3.4.5z"/><circle class="st44" cx="295.9" cy="81.9" r="4.3"/><path class="st46" d="M295.7 81.5l-1.2-1.1-.6 1-.2-.1.8-1.2 1.2 1.1.6-1 .2.1zM298.4 81.4l-.7.8-.7-.8zM297 81l.7-.8.7.8zM293.5 82.2h1.4v.4h-1.4zM293.5 82.8h5.1v.4h-5.1zM293.5 83.4h5.1v.4h-5.1z"/><circle class="st46" cx="294.6" cy="80.3" r=".3"/><circle class="st46" cx="295.6" cy="81.3" r=".3"/><circle class="st46" cx="296.4" cy="80.3" r=".3"/><circle class="st46" cx="293.8" cy="81.3" r=".3"/><path class="st43" d="M297.5 17.3c.9.3 2.8.6 3.8.7 1.8.1 3.5-.1 5.6-1.8 3.7-3 5.3-11.3 14-10 6 .9 6.4 11.4 14 7.8 7.6-3.5 18.2 8.9 11.4 13.5S329.8 33.3 330 39c.2 5.8-20.2 4.5-22.7-4.1s-9-2.1-12.9-6.8c-3.7-4.5-1.9-12.5 3.1-10.8z"/><circle class="st49" cx="322.7" cy="21.3" r="5.8"/><path class="st49" d="M345.7 15.1h.9v4.4h-.9z"/><path class="st50" d="M347 17.1h.9v2.4h-.9zM349.6 17.7h.9v1.7h-.9z"/><path class="st51" d="M348.3 16h.9v3.5h-.9z"/><circle class="st49" cx="337.9" cy="25" r="4.9"/><path class="st51" d="M324 22.9l-2.4-2.8-1.9 2.5-.4-.3 2.3-2.9 2.4 2.7 2.1-2.9.4.3z"/><circle class="st51" cx="319.5" cy="22.4" r=".8"/><path class="st51" d="M319.5 23.4c-.5 0-1-.4-1-1 0-.5.4-1 1-1 .5 0 1 .4 1 1s-.4 1-1 1zm0-1.5c-.3 0-.5.2-.5.5s.2.5.5.5.5-.2.5-.5-.2-.5-.5-.5z"/><circle class="st51" cx="321.6" cy="19.7" r=".8"/><path class="st51" d="M321.6 20.7c-.5 0-1-.4-1-1s.4-1 1-1 1 .4 1 1-.4 1-1 1zm0-1.5c-.3 0-.5.2-.5.5s.2.5.5.5.5-.2.5-.5-.2-.5-.5-.5z"/><circle class="st51" cx="326.1" cy="19.7" r=".8"/><path class="st51" d="M326.1 20.7c-.5 0-1-.4-1-1s.4-1 1-1c.5 0 1 .4 1 1s-.4 1-1 1zm0-1.5c-.3 0-.5.2-.5.5s.2.5.5.5.5-.2.5-.5-.2-.5-.5-.5z"/><circle class="st51" cx="324" cy="22.4" r=".8"/><path class="st51" d="M324 23.3c-.5 0-.9-.4-.9-.9s.4-.9.9-.9.9.4.9.9-.4.9-.9.9zm0-1.5c-.3 0-.6.3-.6.6s.3.6.6.6.6-.3.6-.6-.2-.6-.6-.6zM337.1 26.6l.1-.2c-.8 0-1.7 0-1.9-.1 0-.5.8-1.3 1.8-1.3.2 0 .4 0 .6.1l.1-.2h-.1c.1 0 .1-.1.2-.1l.4-1.1c-.1-.5-.6-.9-1.1-.9-.6 0-1.1.5-1.1 1.1 0 .4.2.8.6 1-.8.2-1.5 1-1.5 1.6 0 .1.2.2.7.3.2-.2.7-.2 1.2-.2zm-.9-2.9c0-.5.4-.9.9-.9s.9.4.9.9-.4.9-.9.9-.9-.4-.9-.9zM339.7 24.7c.4-.1.8-.5.8-1 0-.6-.5-1.1-1.1-1.1h-.1l-.6 1.8c.1.1.2.2.4.2-.2 0-.4.1-.5.2l-.5 1.6c1.1.1 3.5 0 3.5-.2-.2-.4-1-1.3-1.9-1.5z"/><path transform="rotate(-71.555 337.898 24.966)" class="st51" d="M334.9 24.8h6v.4h-6z"/><path class="st51" d="M328.4 39.8c-.5 0-.9-.1-1.4-.2-1-.4-1.8-1.1-2.2-2.1-.4-1-.5-2.1-.1-3.1.8-2 3.1-3.1 5.1-2.3.7.3 1.3.7 1.7 1.3l-.6.4c-.3-.4-.8-.8-1.4-1-1.7-.6-3.6.2-4.2 1.9-.3.8-.3 1.7.1 2.5s1 1.4 1.8 1.7c1.7.6 3.6-.2 4.2-1.9.2-.6.3-1.2.2-1.8l.7-.1c.1.7.1 1.5-.2 2.2-.5 1.5-2.1 2.5-3.7 2.5z"/><path class="st50" d="M328.5 38.1c-.3 0-.6-.1-1-.2-1.1-.5-1.6-1.9-1.1-3 .3-.6.7-1 1.3-1.2.6-.2 1.2-.2 1.7.1.2.1.4.2.6.4l-.5.5c-.1-.1-.2-.2-.4-.2-.4-.2-.8-.2-1.2-.1-.4.1-.7.4-.9.8-.4.8 0 1.7.8 2.1.4.2.8.2 1.2.1.4-.1.7-.4.9-.8.1-.1.1-.3.1-.4l.7.1c0 .2-.1.4-.2.6-.4.7-1.2 1.2-2 1.2z"/><path class="st49" d="M328.8 36.2c-.1 0-.2 0-.2-.1-.1-.1 0-.3.1-.4l3.6-2c.1-.1.3 0 .4.1s0 .3-.1.4l-3.6 2h-.2z"/><path class="st49" d="M332.5 33l1.1-.6.1.9.8.6-1.2.6-1.2-.3zM309.4 14.5h-4.1c-.1 0-.1.1-.1.1l.6 1.2h3.2l.6-1.2c0-.1-.1-.1-.2-.1z"/><path class="st50" d="M307.5 19l.6-1.3h-1.4l.6 1.3c0 .1.1.1.2 0z"/><path class="st51" d="M306 16.2l.5 1.1h1.8l.5-1.1z"/><circle class="st52" cx="307.4" cy="16.3" r="4.8"/><circle class="st52" cx="348.3" cy="17.3" r="4.3"/><path class="st49" d="M318.1 28.8H317v-.7c0-2-1.6-3.6-3.6-3.6h-13.9l-4.6-4.6c-.6-.6-1.6-1.1-2.5-1.1h-11.7c-2 0-3.6 1.6-3.6 3.6v27c0 2 1.6 3.6 3.6 3.6h32c1.6 0 2.9-1 3.4-2.5l5.3-17.1c.7-2.3-.9-4.6-3.3-4.6zm-39.5-6.4c0-1.2.9-2.1 2.1-2.1h11.6c.6 0 1.1.2 1.5.6l4.8 4.8c.1.1.3.2.5.2h14.2c1.2 0 2.1.9 2.1 2.1v.7H287c-1.6 0-2.9 1-3.4 2.5l-5 16.3V22.4zM320.1 33l-5.3 17.1c-.3.9-1.1 1.5-2.1 1.5h-32c-.8 0-1.7-.8-1.4-1.8l5.6-18.1c.3-.9 1.1-1.5 2.1-1.5h31c1.6 0 2.5 1.5 2.1 2.8z"/><path class="st50" d="M320.2 33l-5.3 17.1c-.3.9-1.1 1.5-2.1 1.5h-32c-.8 0-1.7-.8-1.4-1.8l5.6-18.1c.3-.9 1.1-1.5 2.1-1.5h31c1.6 0 2.5 1.5 2.1 2.8z"/><path class="st53" d="M278.6 22.4c0-1.2.9-2.1 2.1-2.1h11.6c.6 0 1.1.2 1.5.6l4.8 4.8c.1.1.3.2.5.2h14.2c1.2 0 2.1.9 2.1 2.1v.7H287c-1.6 0-2.9 1-3.4 2.5l-5 16.3V22.4z"/><circle class="st49" cx="279.4" cy="20.3" r="8.8"/><path class="st53" d="M279.9 16.7v3.1h2.9c.2 0 .5.2.5.5 0 .2-.2.5-.5.5h-2.9v3.1c0 .2-.2.5-.5.5h-.1c-.2 0-.5-.2-.5-.5v-3.1H276c-.2 0-.5-.2-.5-.5 0-.2.2-.5.5-.5h2.9v-3.1c0-.2.2-.5.5-.5h.1c.2.1.4.3.4.5z"/><circle class="st49" cx="295.9" cy="21.9" r="4.3"/><path class="st53" d="M295.7 21.5l-1.2-1.1-.6 1-.2-.1.8-1.2 1.2 1.1.6-1 .2.1zM298.4 21.4l-.7.8-.7-.8zM297 21l.7-.8.7.8zM293.5 22.2h1.4v.4h-1.4zM293.5 22.8h5.1v.4h-5.1zM293.5 23.4h5.1v.4h-5.1z"/><circle class="st53" cx="294.6" cy="20.3" r=".3"/><circle class="st53" cx="295.6" cy="21.3" r=".3"/><circle class="st53" cx="296.4" cy="20.3" r=".3"/><circle class="st53" cx="293.8" cy="21.3" r=".3"/><path d="M258.8 1050.6c-1.1-.6-2.6-.3-4.2.5s-3.4 2-5.1 3.6c-.5-.2-1-.3-1.5-.2-.6.1-1.2.4-1.6.8l-1.4 1.4c-.2.2-.1.6.1.7l1.4.7c-.3.4-.5.7-.8 1.3-.1.2-.1.4.1.5l3.9 3.9c.1.1.4.2.5.1.6-.4.9-.6 1.3-.8l.7 1.4c.1.2.5.3.7.1l1.4-1.4c.4-.4.7-1 .8-1.6.1-.5 0-1-.2-1.5 1.6-1.7 2.9-3.5 3.6-5.1.8-1.7 1.1-3.2.5-4.2l-.2-.2zm-.5.8c.3.6.1 1.8-.6 3.3-.7 1.6-2 3.4-3.7 5.2-.1.1-.2.4 0 .6.2.3.3.7.2 1.1s-.3.9-.6 1.2l-.9.9-.6-1.3c-.1-.2-.4-.3-.6-.2-.6.4-.9.6-1.4.9l-3.5-3.5c.3-.5.5-.7.9-1.4.1-.2 0-.5-.2-.6l-1.3-.6.9-.9c.3-.3.7-.5 1.2-.6.4-.1.9 0 1.1.2.2.1.4.1.6 0 1.8-1.7 3.6-3 5.2-3.7 1.4-.8 2.3-1.2 3.3-.6zm-2.3 2.2c-.7-.7-1.8-.7-2.4 0-.7.7-.7 1.8 0 2.4.7.7 1.8.7 2.4 0 .7-.6.7-1.7 0-2.4zm-.6.6c.3.3.3.9 0 1.2s-.9.3-1.2 0-.3-.9 0-1.2.9-.3 1.2 0z" transform="translate(0 -952.362)"/><path class="st0" d="M245.3 109.4l-2.5 2.5M247.3 111.4l-4 4"/><circle class="st54" cx="224.5" cy="142.5" r="2"/><path class="st0" d="M228.5 148.5c.5 0 .8-.4.7-.8-.6-1.8-2.5-3.2-4.7-3.2-2.3 0-4.2 1.4-4.7 3.2-.1.4.2.8.7.8h8z"/><circle class="st54" cx="224.5" cy="142.5" r="2"/><path class="st0" d="M228.5 148.5c.5 0 .8-.4.7-.8-.6-1.8-2.5-3.2-4.7-3.2-2.3 0-4.2 1.4-4.7 3.2-.1.4.2.8.7.8h8z"/><circle class="st54" cx="244.5" cy="142.5" r="2"/><path class="st0" d="M248.5 148.5c.5 0 .8-.4.7-.8-.6-1.8-2.5-3.2-4.7-3.2-2.3 0-4.2 1.3-4.7 3.2-.1.4.2.8.7.8h8z"/><path d="M251.2 142.2c-1.4 0-2.6-1.2-2.6-2.6s1.2-2.6 2.6-2.6 2.6 1.2 2.6 2.6-1.2 2.6-2.6 2.6zm0-4.2c-.9 0-1.6.7-1.6 1.6s.7 1.6 1.6 1.6 1.6-.7 1.6-1.6-.8-1.6-1.6-1.6z"/><path d="M256.5 145.4c-.7-2.3-2.8-3.9-5.2-3.9-1.2 0-2.4.4-3.3 1.2.4.1.8.2 1.1.4.7-.4 1.4-.6 2.2-.6 2 0 3.7 1.3 4.2 3.2v.2s-.1.1-.2.1h-3.6c.1.3.2.7.3 1h3.3c.4 0 .7-.2 1-.5.2-.3.3-.7.2-1.1z"/><circle class="st54" cx="244.5" cy="142.5" r="2"/><path class="st0" d="M248.5 148.5c.5 0 .8-.4.7-.8-.6-1.8-2.5-3.2-4.7-3.2-2.3 0-4.2 1.3-4.7 3.2-.1.4.2.8.7.8h8z"/><path d="M251.2 142.2c-1.4 0-2.6-1.2-2.6-2.6s1.2-2.6 2.6-2.6 2.6 1.2 2.6 2.6-1.2 2.6-2.6 2.6zm0-4.2c-.9 0-1.6.7-1.6 1.6s.7 1.6 1.6 1.6 1.6-.7 1.6-1.6-.8-1.6-1.6-1.6z"/><path d="M256.5 145.4c-.7-2.3-2.8-3.9-5.2-3.9-1.2 0-2.4.4-3.3 1.2.4.1.8.2 1.1.4.7-.4 1.4-.6 2.2-.6 2 0 3.7 1.3 4.2 3.2v.2s-.1.1-.2.1h-3.6c.1.3.2.7.3 1h3.3c.4 0 .7-.2 1-.5.2-.3.3-.7.2-1.1z"/><circle class="st55" cx="224.5" cy="161.5" r="2"/><path class="st56" d="M228.5 167.5c.5 0 .8-.4.7-.8-.6-1.8-2.5-3.2-4.7-3.2-2.3 0-4.2 1.4-4.7 3.2-.1.4.2.8.7.8h8z"/><circle class="st43" cx="224.5" cy="161.5" r="2"/><path class="st43" d="M228.5 167.5c.5 0 .8-.4.7-.8-.6-1.8-2.5-3.2-4.7-3.2-2.3 0-4.2 1.4-4.7 3.2-.1.4.2.8.7.8h8z"/><circle class="st55" cx="244.5" cy="161.5" r="2"/><path class="st56" d="M248.5 167.5c.5 0 .8-.4.7-.8-.6-1.8-2.5-3.2-4.7-3.2-2.3 0-4.2 1.3-4.7 3.2-.1.4.2.8.7.8h8z"/><circle class="st43" cx="244.5" cy="161.5" r="2"/><path class="st43" d="M248.5 167.5c.5 0 .8-.4.7-.8-.6-1.8-2.5-3.2-4.7-3.2-2.3 0-4.2 1.3-4.7 3.2-.1.4.2.8.7.8h8z"/><circle class="st43" cx="252" cy="159.9" r="2"/><circle class="st57" cx="274.5" cy="161.5" r="2"/><path class="st58" d="M278.5 167.5c.5 0 .8-.4.7-.8-.6-1.8-2.5-3.2-4.7-3.2-2.3 0-4.2 1.4-4.7 3.2-.1.4.2.8.7.8h8z"/><circle class="st57" cx="274.5" cy="161.5" r="2"/><path class="st58" d="M278.5 167.5c.5 0 .8-.4.7-.8-.6-1.8-2.5-3.2-4.7-3.2-2.3 0-4.2 1.4-4.7 3.2-.1.4.2.8.7.8h8z"/><circle class="st57" cx="294.5" cy="161.5" r="2"/><path class="st58" d="M298.5 167.5c.5 0 .8-.4.7-.8-.6-1.8-2.5-3.2-4.7-3.2-2.3 0-4.2 1.3-4.7 3.2-.1.4.2.8.7.8h8z"/><g><path class="st59" d="M301.2 161.2c-1.4 0-2.6-1.2-2.6-2.6s1.2-2.6 2.6-2.6 2.6 1.2 2.6 2.6-1.2 2.6-2.6 2.6zm0-4.2c-.9 0-1.6.7-1.6 1.6s.7 1.6 1.6 1.6 1.6-.7 1.6-1.6-.8-1.6-1.6-1.6z"/></g><path class="st59" d="M306.5 164.4c-.7-2.3-2.8-3.9-5.2-3.9-1.2 0-2.4.4-3.3 1.2.4.1.8.2 1.1.4.7-.4 1.4-.6 2.2-.6 2 0 3.7 1.3 4.2 3.2v.2s-.1.1-.2.1h-3.6c.1.3.2.7.3 1h3.3c.4 0 .7-.2 1-.5.2-.3.3-.7.2-1.1z"/><circle class="st57" cx="294.5" cy="161.5" r="2"/><path class="st58" d="M298.5 167.5c.5 0 .8-.4.7-.8-.6-1.8-2.5-3.2-4.7-3.2-2.3 0-4.2 1.3-4.7 3.2-.1.4.2.8.7.8h8z"/><g><path class="st59" d="M301.2 161.2c-1.4 0-2.6-1.2-2.6-2.6s1.2-2.6 2.6-2.6 2.6 1.2 2.6 2.6-1.2 2.6-2.6 2.6zm0-4.2c-.9 0-1.6.7-1.6 1.6s.7 1.6 1.6 1.6 1.6-.7 1.6-1.6-.8-1.6-1.6-1.6z"/></g><path class="st59" d="M306.5 164.4c-.7-2.3-2.8-3.9-5.2-3.9-1.2 0-2.4.4-3.3 1.2.4.1.8.2 1.1.4.7-.4 1.4-.6 2.2-.6 2 0 3.7 1.3 4.2 3.2v.2s-.1.1-.2.1h-3.6c.1.3.2.7.3 1h3.3c.4 0 .7-.2 1-.5.2-.3.3-.7.2-1.1z"/><circle class="st55" cx="274.5" cy="181.5" r="2"/><path class="st56" d="M278.5 187.5c.5 0 .8-.4.7-.8-.6-1.8-2.5-3.2-4.7-3.2-2.3 0-4.2 1.4-4.7 3.2-.1.4.2.8.7.8h8z"/><circle class="st55" cx="274.5" cy="181.5" r="2"/><path class="st56" d="M278.5 187.5c.5 0 .8-.4.7-.8-.6-1.8-2.5-3.2-4.7-3.2-2.3 0-4.2 1.4-4.7 3.2-.1.4.2.8.7.8h8z"/><circle class="st55" cx="294.5" cy="181.5" r="2"/><path class="st56" d="M298.5 187.5c.5 0 .8-.4.7-.8-.6-1.8-2.5-3.2-4.7-3.2-2.3 0-4.2 1.3-4.7 3.2-.1.4.2.8.7.8h8z"/><g><path class="st43" d="M301.2 181.2c-1.4 0-2.6-1.2-2.6-2.6s1.2-2.6 2.6-2.6 2.6 1.2 2.6 2.6-1.2 2.6-2.6 2.6zm0-4.2c-.9 0-1.6.7-1.6 1.6s.7 1.6 1.6 1.6 1.6-.7 1.6-1.6-.8-1.6-1.6-1.6z"/></g><path class="st43" d="M306.5 184.4c-.7-2.3-2.8-3.9-5.2-3.9-1.2 0-2.4.4-3.3 1.2.4.1.8.2 1.1.4.7-.4 1.4-.6 2.2-.6 2 0 3.7 1.3 4.2 3.2v.2s-.1.1-.2.1h-3.6c.1.3.2.7.3 1h3.3c.4 0 .7-.2 1-.5.2-.3.3-.7.2-1.1z"/><circle class="st55" cx="294.5" cy="181.5" r="2"/><path class="st56" d="M298.5 187.5c.5 0 .8-.4.7-.8-.6-1.8-2.5-3.2-4.7-3.2-2.3 0-4.2 1.3-4.7 3.2-.1.4.2.8.7.8h8z"/><g><path class="st43" d="M301.2 181.2c-1.4 0-2.6-1.2-2.6-2.6s1.2-2.6 2.6-2.6 2.6 1.2 2.6 2.6-1.2 2.6-2.6 2.6zm0-4.2c-.9 0-1.6.7-1.6 1.6s.7 1.6 1.6 1.6 1.6-.7 1.6-1.6-.8-1.6-1.6-1.6z"/></g><path class="st43" d="M306.5 184.4c-.7-2.3-2.8-3.9-5.2-3.9-1.2 0-2.4.4-3.3 1.2.4.1.8.2 1.1.4.7-.4 1.4-.6 2.2-.6 2 0 3.7 1.3 4.2 3.2v.2s-.1.1-.2.1h-3.6c.1.3.2.7.3 1h3.3c.4 0 .7-.2 1-.5.2-.3.3-.7.2-1.1z"/><path class="st60" d="M266.5 147.5l10-10M272 137.5h4.5v4.5M271 147.5h-4.5V143"/><path class="st59" d="M298.5 120c-8.4 0-15.5 7.1-15.5 15.5s7.1 15.5 15.5 15.5 15.5-7.1 15.5-15.5-7.1-15.5-15.5-15.5zm5.2 16.1h-4.6v4.6c.1.5-.1.7-.6.7s-.7-.2-.6-.7v-4.6h-4.6c-.5.1-.7-.1-.7-.6s.2-.7.7-.6h4.6v-4.6c-.1-.5.1-.7.6-.7s.7.2.6.7v4.6h4.6c.5-.1.7.1.7.6s-.2.7-.7.6z"/><path d="M331.5 123c-6.8 0-12.5 5.7-12.5 12.5s5.7 12.5 12.5 12.5 12.5-5.7 12.5-12.5-5.7-12.5-12.5-12.5zm-8.9 12.5c0-5 4.1-8.9 8.9-8.9 1.6 0 3 .4 4.3 1.1l-11.2 13.6c-1.3-1.6-2-3.6-2-5.8zm8.9 8.9c-1.8 0-3.6-.5-4.9-1.4l11.3-13.7c1.6 1.6 2.5 3.8 2.5 6.2 0 5-3.9 8.9-8.9 8.9z"/><circle class="st61" cx="254.2" cy="186.7" r=".9"/><circle class="st61" cx="256.9" cy="186.7" r=".9"/><circle class="st61" cx="259.6" cy="186.7" r=".9"/><circle class="st61" cx="256.9" cy="182.2" r=".9"/><path class="st61" d="M254.1 185.5v-.2c0-.4.4-.8.9-.8h3.8c.5 0 .9.4.9.8v.2M256.7 183.1v2.5"/><path class="st43" d="M256.7 165.1c-.6-1.8-2.5-3.2-4.7-3.2-1.4 0-2.7.5-3.5 1.3 1.3.2 2.2 1.3 2.2 2.7h5.3c.5 0 .8-.4.7-.8z"/></svg>